<svg width="64" height="64" xmlns="http://www.w3.org/2000/svg">

 <title/>
 <g>
  <title>background</title>
  <rect fill="none" id="canvas_background" height="66" width="66" y="-1" x="-1"/>
 </g>
 <g>
  <title>Layer 1</title>
  <path fill="#f43b33" id="svg_11" d="m8,21.71l0,0l0,0z" class="cls-1"/>
  <text stroke="null" transform="matrix(1.1385523880137298,0,0,0.5841794975451912,2.374030851212516,-3.235819017391048) " xml:space="preserve" text-anchor="start" font-family="Oswald, sans-serif" font-size="24" id="svg_13" y="40.819532" x="19.144542" stroke-opacity="null" stroke-width="0" fill="#000000">w</text>
  <g stroke="null" transform="rotate(0.11662565171718597 33.09161758423053,36.14390182495229) " id="svg_14">
   <path stroke="null" fill="#050505" id="svg_1" d="m42.09692,22.119797l0.500771,0a15.707514,14.573917 0 0 0 -19.012602,0l18.511832,0z" class="cls-1"/>
   <path stroke="null" fill="#050505" id="svg_2" d="m24.085859,50.168006l-0.500771,0a15.707514,14.573917 0 0 0 19.012602,0l-18.511832,0z" class="cls-1"/>
   <path stroke="null" fill="#050505" id="svg_3" d="m16.257141,36.136157a18.745525,17.392677 0 0 1 7.327948,-13.938922a9.781725,9.075787 0 0 0 -8.796876,9.292615l0,9.292615a9.781725,9.075787 0 0 0 8.796876,9.292615a18.762217,17.408165 0 0 1 -7.327948,-13.938922z" class="cls-1"/>
   <path stroke="null" fill="#050505" id="svg_4" d="m42.597691,22.135284a18.745525,17.392677 0 0 1 7.327948,13.938922a18.762217,17.408165 0 0 1 -7.327948,13.938922a9.765033,9.060299 0 0 0 8.796876,-9.292615l0,-9.292615a9.765033,9.060299 0 0 0 -8.796876,-9.292615z" class="cls-1"/>
   <ellipse stroke="null" transform="matrix(-1.1202493260863273,1.1481852522913096,-1.2374940695817276,-1.0394019549009657,45.16074749223068,26.094664284109815) " fill="#050505" id="svg_5" ry="1.260425" rx="1.136876" cy="4.831718" cx="9.635801" class="cls-1"/>
   <ellipse stroke="null" transform="matrix(-1.1588050030081194,-1.1147575043764295,1.2014662250143238,-1.0751751038168813,32.964592508921605,63.65242392975786) " fill="#050505" id="svg_6" ry="1.5" rx="0.92" cy="17.229798" cx="11.853308" class="cls-1"/>
   <path stroke="null" fill="#f43b33" id="svg_9" d="m46.503704,45.196457l0,0l0,0z" class="cls-1"/>
   <path stroke="null" fill="#050505" id="svg_10" d="m28.48398,41.424595l1.561706,1.464783a-4.627645,-4.231474 0 0 0 6.836874,0.028226l1.562893,-1.511651a-2.993579,-2.737314 0 0 0 -1.938681,-4.634022l-6.039454,-0.024934a-2.993579,-2.737314 0 0 0 -1.983337,4.677597z" class="cls-1"/>
  </g>
 </g>
</svg>